<?xml version="1.0" encoding="utf-8"?>

<!DOCTYPE svg PUBLIC "-//W3C//DTD SVG 1.1//EN" "http://www.w3.org/Graphics/SVG/1.1/DTD/svg11.dtd">
<!-- Uploaded to: SVG Repo, www.svgrepo.com, Generator: SVG Repo Mixer Tools -->
<svg width="800px" height="800px" viewBox="0 0 16 16" version="1.1" xmlns="http://www.w3.org/2000/svg" xmlns:xlink="http://www.w3.org/1999/xlink">
<path fill="#444" d="M16 8l-2.2-1.6 1.1-2.4-2.7-0.2-0.2-2.7-2.4 1.1-1.6-2.2-1.6 2.2-2.4-1.1-0.2 2.7-2.7 0.2 1.1 2.4-2.2 1.6 2.2 1.6-1.1 2.4 2.7 0.2 0.2 2.7 2.4-1.1 1.6 2.2 1.6-2.2 2.4 1.1 0.2-2.7 2.7-0.2-1.1-2.4 2.2-1.6zM8 13c-2.8 0-5-2.2-5-5s2.2-5 5-5 5 2.2 5 5-2.2 5-5 5z"></path>
</svg>